<svg xmlns="http://www.w3.org/2000/svg" xmlns:xlink="http://www.w3.org/1999/xlink" width="1920" zoomAndPan="magnify" viewBox="0 0 1440 809.999993" height="1080" preserveAspectRatio="xMidYMid meet" version="1.0"><defs><filter x="0%" y="0%" width="100%" height="100%" id="f12634dc29"><feColorMatrix values="0 0 0 0 1 0 0 0 0 1 0 0 0 0 1 0 0 0 1 0" color-interpolation-filters="sRGB"/></filter><g/><mask id="a17d9be044"><g filter="url(#f12634dc29)"><rect x="-144" width="1728" fill="#000000" y="-80.999999" height="971.999992" fill-opacity="0.61"/></g></mask><clipPath id="0094e67473"><rect x="0" width="29" y="0" height="113"/></clipPath><mask id="76530dcac7"><g filter="url(#f12634dc29)"><rect x="-144" width="1728" fill="#000000" y="-80.999999" height="971.999992" fill-opacity="0.61"/></g></mask><clipPath id="25465a085c"><rect x="0" width="55" y="0" height="98"/></clipPath><mask id="4b41a2b517"><g filter="url(#f12634dc29)"><rect x="-144" width="1728" fill="#000000" y="-80.999999" height="971.999992" fill-opacity="0.61"/></g></mask><clipPath id="219b855cce"><rect x="0" width="129" y="0" height="113"/></clipPath><mask id="6588c5bda6"><g filter="url(#f12634dc29)"><rect x="-144" width="1728" fill="#000000" y="-80.999999" height="971.999992" fill-opacity="0.61"/></g></mask><clipPath id="169ea25413"><rect x="0" width="46" y="0" height="95"/></clipPath><mask id="a81f21ad4b"><g filter="url(#f12634dc29)"><rect x="-144" width="1728" fill="#000000" y="-80.999999" height="971.999992" fill-opacity="0.61"/></g></mask><clipPath id="3108089a8f"><rect x="0" width="26" y="0" height="47"/></clipPath><mask id="46089af428"><g filter="url(#f12634dc29)"><rect x="-144" width="1728" fill="#000000" y="-80.999999" height="971.999992" fill-opacity="0.61"/></g></mask><clipPath id="f59517b4dd"><path d="M 0.199219 60 L 1 60 L 1 61 L 0.199219 61 Z M 0.199219 60 " clip-rule="nonzero"/></clipPath><clipPath id="62b8875ec6"><rect x="0" width="176" y="0" height="71"/></clipPath></defs><g mask="url(#a17d9be044)"><g transform="matrix(1, 0, 0, 1, 533, 350)"><g clip-path="url(#0094e67473)"><g fill="#000000" fill-opacity="0.302"><g transform="translate(7.547303, 95.594769)"><g><path d="M 7.359375 0 L 7.359375 -58.515625 L 19.765625 -58.515625 L 19.765625 0 Z M 7.359375 0 "/></g></g></g><g fill="#000000" fill-opacity="0.502"><g transform="translate(3.924862, 91.972299)"><g><path d="M 7.359375 0 L 7.359375 -58.515625 L 19.765625 -58.515625 L 19.765625 0 Z M 7.359375 0 "/></g></g></g><g fill="#000000" fill-opacity="1"><g transform="translate(0.302362, 88.349828)"><g><path d="M 7.359375 0 L 7.359375 -58.515625 L 19.765625 -58.515625 L 19.765625 0 Z M 7.359375 0 "/></g></g></g></g></g></g><g mask="url(#76530dcac7)"><g transform="matrix(1, 0, 0, 1, 545, 355)"><g clip-path="url(#25465a085c)"><g fill="#ff3131" fill-opacity="0.302"><g transform="translate(8.970854, 74.558742)"><g><path d="M 25.953125 -12.6875 C 27.984375 -12.6875 29.441406 -12.476562 30.328125 -12.0625 C 31.210938 -11.65625 31.65625 -10.972656 31.65625 -10.015625 L 31.65625 -2.234375 C 31.65625 -1.273438 31.210938 -0.59375 30.328125 -0.1875 C 29.441406 0.21875 27.984375 0.421875 25.953125 0.421875 C 23.921875 0.421875 22.460938 0.21875 21.578125 -0.1875 C 20.691406 -0.59375 20.25 -1.273438 20.25 -2.234375 L 20.25 -10.015625 C 20.25 -10.972656 20.691406 -11.65625 21.578125 -12.0625 C 22.460938 -12.476562 23.921875 -12.6875 25.953125 -12.6875 Z M 25.953125 -12.6875 "/></g></g></g><g fill="#ff3131" fill-opacity="0.502"><g transform="translate(5.144331, 70.732248)"><g><path d="M 25.953125 -12.6875 C 27.984375 -12.6875 29.441406 -12.476562 30.328125 -12.0625 C 31.210938 -11.65625 31.65625 -10.972656 31.65625 -10.015625 L 31.65625 -2.234375 C 31.65625 -1.273438 31.210938 -0.59375 30.328125 -0.1875 C 29.441406 0.21875 27.984375 0.421875 25.953125 0.421875 C 23.921875 0.421875 22.460938 0.21875 21.578125 -0.1875 C 20.691406 -0.59375 20.25 -1.273438 20.25 -2.234375 L 20.25 -10.015625 C 20.25 -10.972656 20.691406 -11.65625 21.578125 -12.0625 C 22.460938 -12.476562 23.921875 -12.6875 25.953125 -12.6875 Z M 25.953125 -12.6875 "/></g></g></g><g fill="#ff3131" fill-opacity="1"><g transform="translate(1.317866, 66.905754)"><g><path d="M 25.953125 -12.6875 C 27.984375 -12.6875 29.441406 -12.476562 30.328125 -12.0625 C 31.210938 -11.65625 31.65625 -10.972656 31.65625 -10.015625 L 31.65625 -2.234375 C 31.65625 -1.273438 31.210938 -0.59375 30.328125 -0.1875 C 29.441406 0.21875 27.984375 0.421875 25.953125 0.421875 C 23.921875 0.421875 22.460938 0.21875 21.578125 -0.1875 C 20.691406 -0.59375 20.25 -1.273438 20.25 -2.234375 L 20.25 -10.015625 C 20.25 -10.972656 20.691406 -11.65625 21.578125 -12.0625 C 22.460938 -12.476562 23.921875 -12.6875 25.953125 -12.6875 Z M 25.953125 -12.6875 "/></g></g></g></g></g></g><g mask="url(#4b41a2b517)"><g transform="matrix(1, 0, 0, 1, 587, 350)"><g clip-path="url(#219b855cce)"><g fill="#000000" fill-opacity="0.302"><g transform="translate(7.904078, 95.594769)"><g><path d="M 45.5 -12.125 L 38.46875 -12.125 L 38.46875 0 L 26.375 0 L 26.375 -12.125 L 1.40625 -12.125 L 1.40625 -20.734375 L 27.0625 -58.515625 L 38.46875 -58.515625 L 38.46875 -21.734375 L 45.5 -21.734375 Z M 26.375 -21.734375 L 26.375 -31.65625 C 26.375 -33.3125 26.441406 -35.710938 26.578125 -38.859375 C 26.710938 -42.003906 26.816406 -43.832031 26.890625 -44.34375 L 26.578125 -44.34375 C 25.585938 -42.15625 24.398438 -40.019531 23.015625 -37.9375 L 12.28125 -21.734375 Z M 26.375 -21.734375 "/></g></g></g><g fill="#000000" fill-opacity="0.302"><g transform="translate(54.686467, 95.594769)"><g><path d="M 7.359375 0 L 7.359375 -58.515625 L 19.765625 -58.515625 L 19.765625 0 Z M 7.359375 0 "/></g></g></g><g fill="#000000" fill-opacity="0.302"><g transform="translate(81.819445, 95.594769)"><g><path d="M 29.9375 0 L 17.53125 0 L 17.53125 -48.1875 L 1.640625 -48.1875 L 1.640625 -58.515625 L 45.828125 -58.515625 L 45.828125 -48.1875 L 29.9375 -48.1875 Z M 29.9375 0 "/></g></g></g><g fill="#000000" fill-opacity="0.502"><g transform="translate(4.281637, 91.972299)"><g><path d="M 45.5 -12.125 L 38.46875 -12.125 L 38.46875 0 L 26.375 0 L 26.375 -12.125 L 1.40625 -12.125 L 1.40625 -20.734375 L 27.0625 -58.515625 L 38.46875 -58.515625 L 38.46875 -21.734375 L 45.5 -21.734375 Z M 26.375 -21.734375 L 26.375 -31.65625 C 26.375 -33.3125 26.441406 -35.710938 26.578125 -38.859375 C 26.710938 -42.003906 26.816406 -43.832031 26.890625 -44.34375 L 26.578125 -44.34375 C 25.585938 -42.15625 24.398438 -40.019531 23.015625 -37.9375 L 12.28125 -21.734375 Z M 26.375 -21.734375 "/></g></g></g><g fill="#000000" fill-opacity="0.502"><g transform="translate(51.064025, 91.972299)"><g><path d="M 7.359375 0 L 7.359375 -58.515625 L 19.765625 -58.515625 L 19.765625 0 Z M 7.359375 0 "/></g></g></g><g fill="#000000" fill-opacity="0.502"><g transform="translate(78.197004, 91.972299)"><g><path d="M 29.9375 0 L 17.53125 0 L 17.53125 -48.1875 L 1.640625 -48.1875 L 1.640625 -58.515625 L 45.828125 -58.515625 L 45.828125 -48.1875 L 29.9375 -48.1875 Z M 29.9375 0 "/></g></g></g><g fill="#000000" fill-opacity="1"><g transform="translate(0.659137, 88.349828)"><g><path d="M 45.5 -12.125 L 38.46875 -12.125 L 38.46875 0 L 26.375 0 L 26.375 -12.125 L 1.40625 -12.125 L 1.40625 -20.734375 L 27.0625 -58.515625 L 38.46875 -58.515625 L 38.46875 -21.734375 L 45.5 -21.734375 Z M 26.375 -21.734375 L 26.375 -31.65625 C 26.375 -33.3125 26.441406 -35.710938 26.578125 -38.859375 C 26.710938 -42.003906 26.816406 -43.832031 26.890625 -44.34375 L 26.578125 -44.34375 C 25.585938 -42.15625 24.398438 -40.019531 23.015625 -37.9375 L 12.28125 -21.734375 Z M 26.375 -21.734375 "/></g></g></g><g fill="#000000" fill-opacity="1"><g transform="translate(47.441525, 88.349828)"><g><path d="M 7.359375 0 L 7.359375 -58.515625 L 19.765625 -58.515625 L 19.765625 0 Z M 7.359375 0 "/></g></g></g><g fill="#000000" fill-opacity="1"><g transform="translate(74.574504, 88.349828)"><g><path d="M 29.9375 0 L 17.53125 0 L 17.53125 -48.1875 L 1.640625 -48.1875 L 1.640625 -58.515625 L 45.828125 -58.515625 L 45.828125 -48.1875 L 29.9375 -48.1875 Z M 29.9375 0 "/></g></g></g></g></g></g><g mask="url(#6588c5bda6)"><g transform="matrix(1, 0, 0, 1, 699, 358)"><g clip-path="url(#169ea25413)"><g fill="#a6a6a6" fill-opacity="0.302"><g transform="translate(6.899033, 78.824139)"><g><path d="M 19.484375 -54.6875 L 25.46875 -54.6875 L 25.46875 14.984375 L 19.484375 14.984375 Z M 19.484375 -54.6875 "/></g></g></g><g fill="#a6a6a6" fill-opacity="0.502"><g transform="translate(3.588076, 75.513182)"><g><path d="M 19.484375 -54.6875 L 25.46875 -54.6875 L 25.46875 14.984375 L 19.484375 14.984375 Z M 19.484375 -54.6875 "/></g></g></g><g fill="#a6a6a6" fill-opacity="1"><g transform="translate(0.277119, 72.202225)"><g><path d="M 19.484375 -54.6875 L 25.46875 -54.6875 L 25.46875 14.984375 L 19.484375 14.984375 Z M 19.484375 -54.6875 "/></g></g></g></g></g></g><g mask="url(#a81f21ad4b)"><g transform="matrix(1, 0, 0, 1, 725, 401)"><g clip-path="url(#3108089a8f)"><g fill="#ff3131" fill-opacity="0.302"><g transform="translate(4.307275, 35.12055)"><g><path d="M 12.3125 -6.015625 C 13.28125 -6.015625 13.972656 -5.914062 14.390625 -5.71875 C 14.804688 -5.53125 15.015625 -5.207031 15.015625 -4.75 L 15.015625 -1.0625 C 15.015625 -0.601562 14.804688 -0.273438 14.390625 -0.078125 C 13.972656 0.109375 13.28125 0.203125 12.3125 0.203125 C 11.351562 0.203125 10.660156 0.109375 10.234375 -0.078125 C 9.816406 -0.273438 9.609375 -0.601562 9.609375 -1.0625 L 9.609375 -4.75 C 9.609375 -5.207031 9.816406 -5.53125 10.234375 -5.71875 C 10.660156 -5.914062 11.351562 -6.015625 12.3125 -6.015625 Z M 12.3125 -6.015625 "/></g></g></g><g fill="#ff3131" fill-opacity="0.502"><g transform="translate(2.491454, 33.304759)"><g><path d="M 12.3125 -6.015625 C 13.28125 -6.015625 13.972656 -5.914062 14.390625 -5.71875 C 14.804688 -5.53125 15.015625 -5.207031 15.015625 -4.75 L 15.015625 -1.0625 C 15.015625 -0.601562 14.804688 -0.273438 14.390625 -0.078125 C 13.972656 0.109375 13.28125 0.203125 12.3125 0.203125 C 11.351562 0.203125 10.660156 0.109375 10.234375 -0.078125 C 9.816406 -0.273438 9.609375 -0.601562 9.609375 -1.0625 L 9.609375 -4.75 C 9.609375 -5.207031 9.816406 -5.53125 10.234375 -5.71875 C 10.660156 -5.914062 11.351562 -6.015625 12.3125 -6.015625 Z M 12.3125 -6.015625 "/></g></g></g><g fill="#ff3131" fill-opacity="1"><g transform="translate(0.675693, 31.488968)"><g><path d="M 12.3125 -6.015625 C 13.28125 -6.015625 13.972656 -5.914062 14.390625 -5.71875 C 14.804688 -5.53125 15.015625 -5.207031 15.015625 -4.75 L 15.015625 -1.0625 C 15.015625 -0.601562 14.804688 -0.273438 14.390625 -0.078125 C 13.972656 0.109375 13.28125 0.203125 12.3125 0.203125 C 11.351562 0.203125 10.660156 0.109375 10.234375 -0.078125 C 9.816406 -0.273438 9.609375 -0.601562 9.609375 -1.0625 L 9.609375 -4.75 C 9.609375 -5.207031 9.816406 -5.53125 10.234375 -5.71875 C 10.660156 -5.914062 11.351562 -6.015625 12.3125 -6.015625 Z M 12.3125 -6.015625 "/></g></g></g></g></g></g><g mask="url(#46089af428)"><g transform="matrix(1, 0, 0, 1, 733, 379)"><g clip-path="url(#62b8875ec6)"><g fill="#000000" fill-opacity="0.302"><g transform="translate(3.287743, 36.940426)"><g><path d="M 2.9375 0 L 2.9375 -23.40625 L 7.90625 -23.40625 L 7.90625 0 Z M 2.9375 0 "/></g></g></g><g fill="#000000" fill-opacity="0.302"><g transform="translate(14.139344, 36.940426)"><g><path d="M 23.703125 0 L 17.40625 0 L 7.21875 -17.703125 L 7.078125 -17.703125 C 7.273438 -14.578125 7.375 -12.347656 7.375 -11.015625 L 7.375 0 L 2.9375 0 L 2.9375 -23.40625 L 9.203125 -23.40625 L 19.375 -5.875 L 19.484375 -5.875 C 19.316406 -8.914062 19.234375 -11.066406 19.234375 -12.328125 L 19.234375 -23.40625 L 23.703125 -23.40625 Z M 23.703125 0 "/></g></g></g><g fill="#000000" fill-opacity="0.302"><g transform="translate(40.788199, 36.940426)"><g><path d="M 16.296875 -23.40625 L 21.296875 -23.40625 L 13.34375 0 L 7.9375 0 L 0 -23.40625 L 5.015625 -23.40625 L 9.40625 -9.46875 C 9.65625 -8.65625 9.910156 -7.703125 10.171875 -6.609375 C 10.429688 -5.515625 10.59375 -4.753906 10.65625 -4.328125 C 10.78125 -5.304688 11.179688 -7.019531 11.859375 -9.46875 Z M 16.296875 -23.40625 "/></g></g></g><g fill="#000000" fill-opacity="0.302"><g transform="translate(62.091281, 36.940426)"><g><path d="M 16.421875 0 L 2.9375 0 L 2.9375 -23.40625 L 16.421875 -23.40625 L 16.421875 -19.328125 L 7.90625 -19.328125 L 7.90625 -14.203125 L 15.828125 -14.203125 L 15.828125 -10.125 L 7.90625 -10.125 L 7.90625 -4.09375 L 16.421875 -4.09375 Z M 16.421875 0 "/></g></g></g><g fill="#000000" fill-opacity="0.302"><g transform="translate(80.449385, 36.940426)"><g><path d="M 23.703125 0 L 17.40625 0 L 7.21875 -17.703125 L 7.078125 -17.703125 C 7.273438 -14.578125 7.375 -12.347656 7.375 -11.015625 L 7.375 0 L 2.9375 0 L 2.9375 -23.40625 L 9.203125 -23.40625 L 19.375 -5.875 L 19.484375 -5.875 C 19.316406 -8.914062 19.234375 -11.066406 19.234375 -12.328125 L 19.234375 -23.40625 L 23.703125 -23.40625 Z M 23.703125 0 "/></g></g></g><g fill="#000000" fill-opacity="0.302"><g transform="translate(107.09824, 36.940426)"><g><path d="M 11.96875 0 L 7.015625 0 L 7.015625 -19.265625 L 0.65625 -19.265625 L 0.65625 -23.40625 L 18.328125 -23.40625 L 18.328125 -19.265625 L 11.96875 -19.265625 Z M 11.96875 0 "/></g></g></g><g fill="#000000" fill-opacity="0.302"><g transform="translate(126.08054, 36.940426)"><g><path d="M 2.9375 0 L 2.9375 -23.40625 L 7.90625 -23.40625 L 7.90625 0 Z M 2.9375 0 "/></g></g></g><g fill="#000000" fill-opacity="0.302"><g transform="translate(136.932141, 36.940426)"><g><path d="M 16.296875 -23.40625 L 21.296875 -23.40625 L 13.34375 0 L 7.9375 0 L 0 -23.40625 L 5.015625 -23.40625 L 9.40625 -9.46875 C 9.65625 -8.65625 9.910156 -7.703125 10.171875 -6.609375 C 10.429688 -5.515625 10.59375 -4.753906 10.65625 -4.328125 C 10.78125 -5.304688 11.179688 -7.019531 11.859375 -9.46875 Z M 16.296875 -23.40625 "/></g></g></g><g fill="#000000" fill-opacity="0.302"><g transform="translate(158.235223, 36.940426)"><g><path d="M 16.421875 0 L 2.9375 0 L 2.9375 -23.40625 L 16.421875 -23.40625 L 16.421875 -19.328125 L 7.90625 -19.328125 L 7.90625 -14.203125 L 15.828125 -14.203125 L 15.828125 -10.125 L 7.90625 -10.125 L 7.90625 -4.09375 L 16.421875 -4.09375 Z M 16.421875 0 "/></g></g></g><g fill="#000000" fill-opacity="0.502"><g transform="translate(1.838778, 35.491432)"><g><path d="M 2.9375 0 L 2.9375 -23.40625 L 7.90625 -23.40625 L 7.90625 0 Z M 2.9375 0 "/></g></g></g><g fill="#000000" fill-opacity="0.502"><g transform="translate(12.690379, 35.491432)"><g><path d="M 23.703125 0 L 17.40625 0 L 7.21875 -17.703125 L 7.078125 -17.703125 C 7.273438 -14.578125 7.375 -12.347656 7.375 -11.015625 L 7.375 0 L 2.9375 0 L 2.9375 -23.40625 L 9.203125 -23.40625 L 19.375 -5.875 L 19.484375 -5.875 C 19.316406 -8.914062 19.234375 -11.066406 19.234375 -12.328125 L 19.234375 -23.40625 L 23.703125 -23.40625 Z M 23.703125 0 "/></g></g></g><g fill="#000000" fill-opacity="0.502"><g transform="translate(39.339234, 35.491432)"><g><path d="M 16.296875 -23.40625 L 21.296875 -23.40625 L 13.34375 0 L 7.9375 0 L 0 -23.40625 L 5.015625 -23.40625 L 9.40625 -9.46875 C 9.65625 -8.65625 9.910156 -7.703125 10.171875 -6.609375 C 10.429688 -5.515625 10.59375 -4.753906 10.65625 -4.328125 C 10.78125 -5.304688 11.179688 -7.019531 11.859375 -9.46875 Z M 16.296875 -23.40625 "/></g></g></g><g fill="#000000" fill-opacity="0.502"><g transform="translate(60.642316, 35.491432)"><g><path d="M 16.421875 0 L 2.9375 0 L 2.9375 -23.40625 L 16.421875 -23.40625 L 16.421875 -19.328125 L 7.90625 -19.328125 L 7.90625 -14.203125 L 15.828125 -14.203125 L 15.828125 -10.125 L 7.90625 -10.125 L 7.90625 -4.09375 L 16.421875 -4.09375 Z M 16.421875 0 "/></g></g></g><g fill="#000000" fill-opacity="0.502"><g transform="translate(79.00042, 35.491432)"><g><path d="M 23.703125 0 L 17.40625 0 L 7.21875 -17.703125 L 7.078125 -17.703125 C 7.273438 -14.578125 7.375 -12.347656 7.375 -11.015625 L 7.375 0 L 2.9375 0 L 2.9375 -23.40625 L 9.203125 -23.40625 L 19.375 -5.875 L 19.484375 -5.875 C 19.316406 -8.914062 19.234375 -11.066406 19.234375 -12.328125 L 19.234375 -23.40625 L 23.703125 -23.40625 Z M 23.703125 0 "/></g></g></g><g fill="#000000" fill-opacity="0.502"><g transform="translate(105.649276, 35.491432)"><g><path d="M 11.96875 0 L 7.015625 0 L 7.015625 -19.265625 L 0.65625 -19.265625 L 0.65625 -23.40625 L 18.328125 -23.40625 L 18.328125 -19.265625 L 11.96875 -19.265625 Z M 11.96875 0 "/></g></g></g><g fill="#000000" fill-opacity="0.502"><g transform="translate(124.631575, 35.491432)"><g><path d="M 2.9375 0 L 2.9375 -23.40625 L 7.90625 -23.40625 L 7.90625 0 Z M 2.9375 0 "/></g></g></g><g fill="#000000" fill-opacity="0.502"><g transform="translate(135.483177, 35.491432)"><g><path d="M 16.296875 -23.40625 L 21.296875 -23.40625 L 13.34375 0 L 7.9375 0 L 0 -23.40625 L 5.015625 -23.40625 L 9.40625 -9.46875 C 9.65625 -8.65625 9.910156 -7.703125 10.171875 -6.609375 C 10.429688 -5.515625 10.59375 -4.753906 10.65625 -4.328125 C 10.78125 -5.304688 11.179688 -7.019531 11.859375 -9.46875 Z M 16.296875 -23.40625 "/></g></g></g><g fill="#000000" fill-opacity="0.502"><g transform="translate(156.786258, 35.491432)"><g><path d="M 16.421875 0 L 2.9375 0 L 2.9375 -23.40625 L 16.421875 -23.40625 L 16.421875 -19.328125 L 7.90625 -19.328125 L 7.90625 -14.203125 L 15.828125 -14.203125 L 15.828125 -10.125 L 7.90625 -10.125 L 7.90625 -4.09375 L 16.421875 -4.09375 Z M 16.421875 0 "/></g></g></g><g fill="#000000" fill-opacity="1"><g transform="translate(0.389754, 34.042438)"><g><path d="M 2.9375 0 L 2.9375 -23.40625 L 7.90625 -23.40625 L 7.90625 0 Z M 2.9375 0 "/></g></g></g><g fill="#000000" fill-opacity="1"><g transform="translate(11.241356, 34.042438)"><g><path d="M 23.703125 0 L 17.40625 0 L 7.21875 -17.703125 L 7.078125 -17.703125 C 7.273438 -14.578125 7.375 -12.347656 7.375 -11.015625 L 7.375 0 L 2.9375 0 L 2.9375 -23.40625 L 9.203125 -23.40625 L 19.375 -5.875 L 19.484375 -5.875 C 19.316406 -8.914062 19.234375 -11.066406 19.234375 -12.328125 L 19.234375 -23.40625 L 23.703125 -23.40625 Z M 23.703125 0 "/></g></g></g><g fill="#000000" fill-opacity="1"><g transform="translate(37.890211, 34.042438)"><g><path d="M 16.296875 -23.40625 L 21.296875 -23.40625 L 13.34375 0 L 7.9375 0 L 0 -23.40625 L 5.015625 -23.40625 L 9.40625 -9.46875 C 9.65625 -8.65625 9.910156 -7.703125 10.171875 -6.609375 C 10.429688 -5.515625 10.59375 -4.753906 10.65625 -4.328125 C 10.78125 -5.304688 11.179688 -7.019531 11.859375 -9.46875 Z M 16.296875 -23.40625 "/></g></g></g><g fill="#000000" fill-opacity="1"><g transform="translate(59.193293, 34.042438)"><g><path d="M 16.421875 0 L 2.9375 0 L 2.9375 -23.40625 L 16.421875 -23.40625 L 16.421875 -19.328125 L 7.90625 -19.328125 L 7.90625 -14.203125 L 15.828125 -14.203125 L 15.828125 -10.125 L 7.90625 -10.125 L 7.90625 -4.09375 L 16.421875 -4.09375 Z M 16.421875 0 "/></g></g></g><g fill="#000000" fill-opacity="1"><g transform="translate(77.551397, 34.042438)"><g><path d="M 23.703125 0 L 17.40625 0 L 7.21875 -17.703125 L 7.078125 -17.703125 C 7.273438 -14.578125 7.375 -12.347656 7.375 -11.015625 L 7.375 0 L 2.9375 0 L 2.9375 -23.40625 L 9.203125 -23.40625 L 19.375 -5.875 L 19.484375 -5.875 C 19.316406 -8.914062 19.234375 -11.066406 19.234375 -12.328125 L 19.234375 -23.40625 L 23.703125 -23.40625 Z M 23.703125 0 "/></g></g></g><g fill="#000000" fill-opacity="1"><g transform="translate(104.200252, 34.042438)"><g><path d="M 11.96875 0 L 7.015625 0 L 7.015625 -19.265625 L 0.65625 -19.265625 L 0.65625 -23.40625 L 18.328125 -23.40625 L 18.328125 -19.265625 L 11.96875 -19.265625 Z M 11.96875 0 "/></g></g></g><g fill="#000000" fill-opacity="1"><g transform="translate(123.182552, 34.042438)"><g><path d="M 2.9375 0 L 2.9375 -23.40625 L 7.90625 -23.40625 L 7.90625 0 Z M 2.9375 0 "/></g></g></g><g fill="#000000" fill-opacity="1"><g transform="translate(134.034153, 34.042438)"><g><path d="M 16.296875 -23.40625 L 21.296875 -23.40625 L 13.34375 0 L 7.9375 0 L 0 -23.40625 L 5.015625 -23.40625 L 9.40625 -9.46875 C 9.65625 -8.65625 9.910156 -7.703125 10.171875 -6.609375 C 10.429688 -5.515625 10.59375 -4.753906 10.65625 -4.328125 C 10.78125 -5.304688 11.179688 -7.019531 11.859375 -9.46875 Z M 16.296875 -23.40625 "/></g></g></g><g fill="#000000" fill-opacity="1"><g transform="translate(155.337235, 34.042438)"><g><path d="M 16.421875 0 L 2.9375 0 L 2.9375 -23.40625 L 16.421875 -23.40625 L 16.421875 -19.328125 L 7.90625 -19.328125 L 7.90625 -14.203125 L 15.828125 -14.203125 L 15.828125 -10.125 L 7.90625 -10.125 L 7.90625 -4.09375 L 16.421875 -4.09375 Z M 16.421875 0 "/></g></g></g><g fill="#000000" fill-opacity="0.302"><g transform="translate(3.287743, 63.067474)"><g/></g></g><g fill="#000000" fill-opacity="0.302"><g transform="translate(11.802568, 63.067474)"><g/></g></g><g fill="#000000" fill-opacity="0.502"><g transform="translate(1.838778, 61.618479)"><g/></g></g><g fill="#000000" fill-opacity="0.502"><g transform="translate(10.353604, 61.618479)"><g/></g></g><g clip-path="url(#f59517b4dd)"><g fill="#000000" fill-opacity="1"><g transform="translate(0.389754, 60.169485)"><g/></g></g></g><g fill="#000000" fill-opacity="1"><g transform="translate(8.90458, 60.169485)"><g/></g></g><g fill="#000000" fill-opacity="0.302"><g transform="translate(20.337562, 63.067474)"><g><path d="M 18.203125 -4.84375 L 15.375 -4.84375 L 15.375 0 L 10.546875 0 L 10.546875 -4.84375 L 0.5625 -4.84375 L 0.5625 -8.296875 L 10.828125 -23.40625 L 15.375 -23.40625 L 15.375 -8.6875 L 18.203125 -8.6875 Z M 10.546875 -8.6875 L 10.546875 -12.65625 C 10.546875 -13.320312 10.570312 -14.285156 10.625 -15.546875 C 10.675781 -16.804688 10.71875 -17.535156 10.75 -17.734375 L 10.625 -17.734375 C 10.226562 -16.859375 9.753906 -16.003906 9.203125 -15.171875 L 4.90625 -8.6875 Z M 10.546875 -8.6875 "/></g></g></g><g fill="#000000" fill-opacity="0.302"><g transform="translate(39.047783, 63.067474)"><g><path d="M 2.9375 0 L 2.9375 -23.40625 L 7.90625 -23.40625 L 7.90625 0 Z M 2.9375 0 "/></g></g></g><g fill="#000000" fill-opacity="0.302"><g transform="translate(49.899385, 63.067474)"><g><path d="M 11.96875 0 L 7.015625 0 L 7.015625 -19.265625 L 0.65625 -19.265625 L 0.65625 -23.40625 L 18.328125 -23.40625 L 18.328125 -19.265625 L 11.96875 -19.265625 Z M 11.96875 0 "/></g></g></g><g fill="#000000" fill-opacity="0.502"><g transform="translate(18.888597, 61.618479)"><g><path d="M 18.203125 -4.84375 L 15.375 -4.84375 L 15.375 0 L 10.546875 0 L 10.546875 -4.84375 L 0.5625 -4.84375 L 0.5625 -8.296875 L 10.828125 -23.40625 L 15.375 -23.40625 L 15.375 -8.6875 L 18.203125 -8.6875 Z M 10.546875 -8.6875 L 10.546875 -12.65625 C 10.546875 -13.320312 10.570312 -14.285156 10.625 -15.546875 C 10.675781 -16.804688 10.71875 -17.535156 10.75 -17.734375 L 10.625 -17.734375 C 10.226562 -16.859375 9.753906 -16.003906 9.203125 -15.171875 L 4.90625 -8.6875 Z M 10.546875 -8.6875 "/></g></g></g><g fill="#000000" fill-opacity="0.502"><g transform="translate(37.598818, 61.618479)"><g><path d="M 2.9375 0 L 2.9375 -23.40625 L 7.90625 -23.40625 L 7.90625 0 Z M 2.9375 0 "/></g></g></g><g fill="#000000" fill-opacity="0.502"><g transform="translate(48.45042, 61.618479)"><g><path d="M 11.96875 0 L 7.015625 0 L 7.015625 -19.265625 L 0.65625 -19.265625 L 0.65625 -23.40625 L 18.328125 -23.40625 L 18.328125 -19.265625 L 11.96875 -19.265625 Z M 11.96875 0 "/></g></g></g><g fill="#000000" fill-opacity="1"><g transform="translate(17.439574, 60.169485)"><g><path d="M 18.203125 -4.84375 L 15.375 -4.84375 L 15.375 0 L 10.546875 0 L 10.546875 -4.84375 L 0.5625 -4.84375 L 0.5625 -8.296875 L 10.828125 -23.40625 L 15.375 -23.40625 L 15.375 -8.6875 L 18.203125 -8.6875 Z M 10.546875 -8.6875 L 10.546875 -12.65625 C 10.546875 -13.320312 10.570312 -14.285156 10.625 -15.546875 C 10.675781 -16.804688 10.71875 -17.535156 10.75 -17.734375 L 10.625 -17.734375 C 10.226562 -16.859375 9.753906 -16.003906 9.203125 -15.171875 L 4.90625 -8.6875 Z M 10.546875 -8.6875 "/></g></g></g><g fill="#000000" fill-opacity="1"><g transform="translate(36.149795, 60.169485)"><g><path d="M 2.9375 0 L 2.9375 -23.40625 L 7.90625 -23.40625 L 7.90625 0 Z M 2.9375 0 "/></g></g></g><g fill="#000000" fill-opacity="1"><g transform="translate(47.001396, 60.169485)"><g><path d="M 11.96875 0 L 7.015625 0 L 7.015625 -19.265625 L 0.65625 -19.265625 L 0.65625 -23.40625 L 18.328125 -23.40625 L 18.328125 -19.265625 L 11.96875 -19.265625 Z M 11.96875 0 "/></g></g></g></g></g></g></svg>