<svg xmlns="http://www.w3.org/2000/svg" xmlns:xlink="http://www.w3.org/1999/xlink" width="720" zoomAndPan="magnify" viewBox="0 0 540 179.999997" height="240" preserveAspectRatio="xMidYMid meet" version="1.0"><defs><filter x="0%" y="0%" width="100%" height="100%" id="1fc55312a0"><feColorMatrix values="0 0 0 0 1 0 0 0 0 1 0 0 0 0 1 0 0 0 1 0" color-interpolation-filters="sRGB"/></filter><g/><mask id="e6e422aa7c"><g filter="url(#1fc55312a0)"><rect x="-54" width="648" fill="#000000" y="-18" height="215.999996" fill-opacity="0.61"/></g></mask><clipPath id="2c05c606bc"><path d="M 19 48 L 36.878906 48 L 36.878906 125 L 19 125 Z M 19 48 " clip-rule="nonzero"/></clipPath><clipPath id="68d9916cb2"><rect x="0" width="37" y="0" height="147"/></clipPath><mask id="8fe9017894"><g filter="url(#1fc55312a0)"><rect x="-54" width="648" fill="#000000" y="-18" height="215.999996" fill-opacity="0.61"/></g></mask><clipPath id="4ca69c063d"><rect x="0" width="69" y="0" height="127"/></clipPath><mask id="def12f18fa"><g filter="url(#1fc55312a0)"><rect x="-54" width="648" fill="#000000" y="-18" height="215.999996" fill-opacity="0.61"/></g></mask><clipPath id="8e655f6d36"><rect x="0" width="169" y="0" height="147"/></clipPath><mask id="3771e03cf2"><g filter="url(#1fc55312a0)"><rect x="-54" width="648" fill="#000000" y="-18" height="215.999996" fill-opacity="0.61"/></g></mask><clipPath id="73efaba8fd"><rect x="0" width="62" y="0" height="128"/></clipPath><mask id="e9202a8a32"><g filter="url(#1fc55312a0)"><rect x="-54" width="648" fill="#000000" y="-18" height="215.999996" fill-opacity="0.61"/></g></mask><clipPath id="a47583d7a1"><rect x="0" width="45" y="0" height="83"/></clipPath><mask id="9ed73b581b"><g filter="url(#1fc55312a0)"><rect x="-54" width="648" fill="#000000" y="-18" height="215.999996" fill-opacity="0.61"/></g></mask><clipPath id="a3edd2b5b0"><path d="M 0.238281 82 L 1 82 L 1 83 L 0.238281 83 Z M 0.238281 82 " clip-rule="nonzero"/></clipPath><clipPath id="8aec4177f1"><rect x="0" width="240" y="0" height="97"/></clipPath></defs><g mask="url(#e6e422aa7c)"><g transform="matrix(1, 0, 0, 1, 20, 9)"><g clip-path="url(#68d9916cb2)"><g clip-path="url(#2c05c606bc)"><g fill="#000000" fill-opacity="0.302"><g transform="translate(10.321035, 124.779323)"><g><path d="M 9.65625 0 L 9.65625 -76.703125 L 25.921875 -76.703125 L 25.921875 0 Z M 9.65625 0 "/></g></g></g></g><g fill="#000000" fill-opacity="0.502"><g transform="translate(5.572261, 120.030549)"><g><path d="M 9.65625 0 L 9.65625 -76.703125 L 25.921875 -76.703125 L 25.921875 0 Z M 9.65625 0 "/></g></g></g><g fill="#ffffff" fill-opacity="1"><g transform="translate(0.823487, 115.281775)"><g><path d="M 9.65625 0 L 9.65625 -76.703125 L 25.921875 -76.703125 L 25.921875 0 Z M 9.65625 0 "/></g></g></g></g></g></g><g mask="url(#8fe9017894)"><g transform="matrix(1, 0, 0, 1, 35, 21)"><g clip-path="url(#4ca69c063d)"><g fill="#ff3131" fill-opacity="0.302"><g transform="translate(10.65095, 97.706876)"><g><path d="M 33.390625 -16.3125 C 35.992188 -16.3125 37.867188 -16.046875 39.015625 -15.515625 C 40.160156 -14.992188 40.734375 -14.117188 40.734375 -12.890625 L 40.734375 -2.875 C 40.734375 -1.644531 40.160156 -0.765625 39.015625 -0.234375 C 37.867188 0.285156 35.992188 0.546875 33.390625 0.546875 C 30.773438 0.546875 28.894531 0.285156 27.75 -0.234375 C 26.613281 -0.765625 26.046875 -1.644531 26.046875 -2.875 L 26.046875 -12.890625 C 26.046875 -14.117188 26.613281 -14.992188 27.75 -15.515625 C 28.894531 -16.046875 30.773438 -16.3125 33.390625 -16.3125 Z M 33.390625 -16.3125 "/></g></g></g><g fill="#ff3131" fill-opacity="0.502"><g transform="translate(5.729324, 92.785247)"><g><path d="M 33.390625 -16.3125 C 35.992188 -16.3125 37.867188 -16.046875 39.015625 -15.515625 C 40.160156 -14.992188 40.734375 -14.117188 40.734375 -12.890625 L 40.734375 -2.875 C 40.734375 -1.644531 40.160156 -0.765625 39.015625 -0.234375 C 37.867188 0.285156 35.992188 0.546875 33.390625 0.546875 C 30.773438 0.546875 28.894531 0.285156 27.75 -0.234375 C 26.613281 -0.765625 26.046875 -1.644531 26.046875 -2.875 L 26.046875 -12.890625 C 26.046875 -14.117188 26.613281 -14.992188 27.75 -15.515625 C 28.894531 -16.046875 30.773438 -16.3125 33.390625 -16.3125 Z M 33.390625 -16.3125 "/></g></g></g><g fill="#ff3131" fill-opacity="1"><g transform="translate(0.807695, 87.863619)"><g><path d="M 33.390625 -16.3125 C 35.992188 -16.3125 37.867188 -16.046875 39.015625 -15.515625 C 40.160156 -14.992188 40.734375 -14.117188 40.734375 -12.890625 L 40.734375 -2.875 C 40.734375 -1.644531 40.160156 -0.765625 39.015625 -0.234375 C 37.867188 0.285156 35.992188 0.546875 33.390625 0.546875 C 30.773438 0.546875 28.894531 0.285156 27.75 -0.234375 C 26.613281 -0.765625 26.046875 -1.644531 26.046875 -2.875 L 26.046875 -12.890625 C 26.046875 -14.117188 26.613281 -14.992188 27.75 -15.515625 C 28.894531 -16.046875 30.773438 -16.3125 33.390625 -16.3125 Z M 33.390625 -16.3125 "/></g></g></g></g></g></g><g mask="url(#def12f18fa)"><g transform="matrix(1, 0, 0, 1, 82, 9)"><g clip-path="url(#8e655f6d36)"><g fill="#000000" fill-opacity="0.302"><g transform="translate(10.098688, 124.779323)"><g><path d="M 59.65625 -15.890625 L 50.421875 -15.890625 L 50.421875 0 L 34.578125 0 L 34.578125 -15.890625 L 1.84375 -15.890625 L 1.84375 -27.171875 L 35.46875 -76.703125 L 50.421875 -76.703125 L 50.421875 -28.484375 L 59.65625 -28.484375 Z M 34.578125 -28.484375 L 34.578125 -41.5 C 34.578125 -43.664062 34.660156 -46.8125 34.828125 -50.9375 C 35.003906 -55.070312 35.148438 -57.472656 35.265625 -58.140625 L 34.84375 -58.140625 C 33.539062 -55.265625 31.984375 -52.460938 30.171875 -49.734375 L 16.109375 -28.484375 Z M 34.578125 -28.484375 "/></g></g></g><g fill="#000000" fill-opacity="0.302"><g transform="translate(71.430788, 124.779323)"><g><path d="M 9.65625 0 L 9.65625 -76.703125 L 25.921875 -76.703125 L 25.921875 0 Z M 9.65625 0 "/></g></g></g><g fill="#000000" fill-opacity="0.302"><g transform="translate(107.002354, 124.779323)"><g><path d="M 39.25 0 L 22.984375 0 L 22.984375 -63.171875 L 2.15625 -63.171875 L 2.15625 -76.703125 L 60.078125 -76.703125 L 60.078125 -63.171875 L 39.25 -63.171875 Z M 39.25 0 "/></g></g></g><g fill="#000000" fill-opacity="0.502"><g transform="translate(5.349914, 120.030549)"><g><path d="M 59.65625 -15.890625 L 50.421875 -15.890625 L 50.421875 0 L 34.578125 0 L 34.578125 -15.890625 L 1.84375 -15.890625 L 1.84375 -27.171875 L 35.46875 -76.703125 L 50.421875 -76.703125 L 50.421875 -28.484375 L 59.65625 -28.484375 Z M 34.578125 -28.484375 L 34.578125 -41.5 C 34.578125 -43.664062 34.660156 -46.8125 34.828125 -50.9375 C 35.003906 -55.070312 35.148438 -57.472656 35.265625 -58.140625 L 34.84375 -58.140625 C 33.539062 -55.265625 31.984375 -52.460938 30.171875 -49.734375 L 16.109375 -28.484375 Z M 34.578125 -28.484375 "/></g></g></g><g fill="#000000" fill-opacity="0.502"><g transform="translate(66.682014, 120.030549)"><g><path d="M 9.65625 0 L 9.65625 -76.703125 L 25.921875 -76.703125 L 25.921875 0 Z M 9.65625 0 "/></g></g></g><g fill="#000000" fill-opacity="0.502"><g transform="translate(102.25358, 120.030549)"><g><path d="M 39.25 0 L 22.984375 0 L 22.984375 -63.171875 L 2.15625 -63.171875 L 2.15625 -76.703125 L 60.078125 -76.703125 L 60.078125 -63.171875 L 39.25 -63.171875 Z M 39.25 0 "/></g></g></g><g fill="#ffffff" fill-opacity="1"><g transform="translate(0.60114, 115.281775)"><g><path d="M 59.65625 -15.890625 L 50.421875 -15.890625 L 50.421875 0 L 34.578125 0 L 34.578125 -15.890625 L 1.84375 -15.890625 L 1.84375 -27.171875 L 35.46875 -76.703125 L 50.421875 -76.703125 L 50.421875 -28.484375 L 59.65625 -28.484375 Z M 34.578125 -28.484375 L 34.578125 -41.5 C 34.578125 -43.664062 34.660156 -46.8125 34.828125 -50.9375 C 35.003906 -55.070312 35.148438 -57.472656 35.265625 -58.140625 L 34.84375 -58.140625 C 33.539062 -55.265625 31.984375 -52.460938 30.171875 -49.734375 L 16.109375 -28.484375 Z M 34.578125 -28.484375 "/></g></g></g><g fill="#ffffff" fill-opacity="1"><g transform="translate(61.93324, 115.281775)"><g><path d="M 9.65625 0 L 9.65625 -76.703125 L 25.921875 -76.703125 L 25.921875 0 Z M 9.65625 0 "/></g></g></g><g fill="#ffffff" fill-opacity="1"><g transform="translate(97.504806, 115.281775)"><g><path d="M 39.25 0 L 22.984375 0 L 22.984375 -63.171875 L 2.15625 -63.171875 L 2.15625 -76.703125 L 60.078125 -76.703125 L 60.078125 -63.171875 L 39.25 -63.171875 Z M 39.25 0 "/></g></g></g></g></g></g><g mask="url(#3771e03cf2)"><g transform="matrix(1, 0, 0, 1, 232, 21)"><g clip-path="url(#73efaba8fd)"><g fill="#a6a6a6" fill-opacity="0.302"><g transform="translate(9.439258, 106.626514)"><g><path d="M 26.375 -74.078125 L 34.5 -74.078125 L 34.5 20.296875 L 26.375 20.296875 Z M 26.375 -74.078125 "/></g></g></g><g fill="#a6a6a6" fill-opacity="0.502"><g transform="translate(4.95439, 102.141645)"><g><path d="M 26.375 -74.078125 L 34.5 -74.078125 L 34.5 20.296875 L 26.375 20.296875 Z M 26.375 -74.078125 "/></g></g></g><g fill="#a6a6a6" fill-opacity="1"><g transform="translate(0.469522, 97.656776)"><g><path d="M 26.375 -74.078125 L 34.5 -74.078125 L 34.5 20.296875 L 26.375 20.296875 Z M 26.375 -74.078125 "/></g></g></g></g></g></g><g mask="url(#e9202a8a32)"><g transform="matrix(1, 0, 0, 1, 271, 66)"><g clip-path="url(#a47583d7a1)"><g fill="#ff3131" fill-opacity="0.302"><g transform="translate(7.018631, 63.445085)"><g><path d="M 21.828125 -10.671875 C 23.535156 -10.671875 24.757812 -10.5 25.5 -10.15625 C 26.25 -9.8125 26.625 -9.234375 26.625 -8.421875 L 26.625 -1.890625 C 26.625 -1.078125 26.25 -0.5 25.5 -0.15625 C 24.757812 0.1875 23.535156 0.359375 21.828125 0.359375 C 20.117188 0.359375 18.890625 0.1875 18.140625 -0.15625 C 17.398438 -0.5 17.03125 -1.078125 17.03125 -1.890625 L 17.03125 -8.421875 C 17.03125 -9.234375 17.398438 -9.8125 18.140625 -10.15625 C 18.890625 -10.5 20.117188 -10.671875 21.828125 -10.671875 Z M 21.828125 -10.671875 "/></g></g></g><g fill="#ff3131" fill-opacity="0.502"><g transform="translate(3.800545, 60.227006)"><g><path d="M 21.828125 -10.671875 C 23.535156 -10.671875 24.757812 -10.5 25.5 -10.15625 C 26.25 -9.8125 26.625 -9.234375 26.625 -8.421875 L 26.625 -1.890625 C 26.625 -1.078125 26.25 -0.5 25.5 -0.15625 C 24.757812 0.1875 23.535156 0.359375 21.828125 0.359375 C 20.117188 0.359375 18.890625 0.1875 18.140625 -0.15625 C 17.398438 -0.5 17.03125 -1.078125 17.03125 -1.890625 L 17.03125 -8.421875 C 17.03125 -9.234375 17.398438 -9.8125 18.140625 -10.15625 C 18.890625 -10.5 20.117188 -10.671875 21.828125 -10.671875 Z M 21.828125 -10.671875 "/></g></g></g><g fill="#ff3131" fill-opacity="1"><g transform="translate(0.582459, 57.008928)"><g><path d="M 21.828125 -10.671875 C 23.535156 -10.671875 24.757812 -10.5 25.5 -10.15625 C 26.25 -9.8125 26.625 -9.234375 26.625 -8.421875 L 26.625 -1.890625 C 26.625 -1.078125 26.25 -0.5 25.5 -0.15625 C 24.757812 0.1875 23.535156 0.359375 21.828125 0.359375 C 20.117188 0.359375 18.890625 0.1875 18.140625 -0.15625 C 17.398438 -0.5 17.03125 -1.078125 17.03125 -1.890625 L 17.03125 -8.421875 C 17.03125 -9.234375 17.398438 -9.8125 18.140625 -10.15625 C 18.890625 -10.5 20.117188 -10.671875 21.828125 -10.671875 Z M 21.828125 -10.671875 "/></g></g></g></g></g></g><g mask="url(#9ed73b581b)"><g transform="matrix(1, 0, 0, 1, 282, 48)"><g clip-path="url(#8aec4177f1)"><g fill="#000000" fill-opacity="0.302"><g transform="translate(4.380984, 51.232392)"><g><path d="M 4.015625 0 L 4.015625 -31.96875 L 10.796875 -31.96875 L 10.796875 0 Z M 4.015625 0 "/></g></g></g><g fill="#000000" fill-opacity="0.302"><g transform="translate(19.204732, 51.232392)"><g><path d="M 32.390625 0 L 23.765625 0 L 9.859375 -24.1875 L 9.671875 -24.1875 C 9.941406 -19.914062 10.078125 -16.867188 10.078125 -15.046875 L 10.078125 0 L 4.015625 0 L 4.015625 -31.96875 L 12.578125 -31.96875 L 26.453125 -8.03125 L 26.609375 -8.03125 C 26.390625 -12.175781 26.28125 -15.113281 26.28125 -16.84375 L 26.28125 -31.96875 L 32.390625 -31.96875 Z M 32.390625 0 "/></g></g></g><g fill="#000000" fill-opacity="0.302"><g transform="translate(55.608192, 51.232392)"><g><path d="M 22.265625 -31.96875 L 29.109375 -31.96875 L 18.234375 0 L 10.84375 0 L 0 -31.96875 L 6.84375 -31.96875 L 12.859375 -12.9375 C 13.191406 -11.820312 13.535156 -10.515625 13.890625 -9.015625 C 14.253906 -7.523438 14.476562 -6.488281 14.5625 -5.90625 C 14.71875 -7.25 15.265625 -9.59375 16.203125 -12.9375 Z M 22.265625 -31.96875 "/></g></g></g><g fill="#000000" fill-opacity="0.302"><g transform="translate(84.709096, 51.232392)"><g><path d="M 22.4375 0 L 4.015625 0 L 4.015625 -31.96875 L 22.4375 -31.96875 L 22.4375 -26.40625 L 10.796875 -26.40625 L 10.796875 -19.390625 L 21.625 -19.390625 L 21.625 -13.84375 L 10.796875 -13.84375 L 10.796875 -5.59375 L 22.4375 -5.59375 Z M 22.4375 0 "/></g></g></g><g fill="#000000" fill-opacity="0.302"><g transform="translate(109.787036, 51.232392)"><g><path d="M 32.390625 0 L 23.765625 0 L 9.859375 -24.1875 L 9.671875 -24.1875 C 9.941406 -19.914062 10.078125 -16.867188 10.078125 -15.046875 L 10.078125 0 L 4.015625 0 L 4.015625 -31.96875 L 12.578125 -31.96875 L 26.453125 -8.03125 L 26.609375 -8.03125 C 26.390625 -12.175781 26.28125 -15.113281 26.28125 -16.84375 L 26.28125 -31.96875 L 32.390625 -31.96875 Z M 32.390625 0 "/></g></g></g><g fill="#000000" fill-opacity="0.302"><g transform="translate(146.190496, 51.232392)"><g><path d="M 16.359375 0 L 9.578125 0 L 9.578125 -26.328125 L 0.890625 -26.328125 L 0.890625 -31.96875 L 25.03125 -31.96875 L 25.03125 -26.328125 L 16.359375 -26.328125 Z M 16.359375 0 "/></g></g></g><g fill="#000000" fill-opacity="0.302"><g transform="translate(172.121124, 51.232392)"><g><path d="M 4.015625 0 L 4.015625 -31.96875 L 10.796875 -31.96875 L 10.796875 0 Z M 4.015625 0 "/></g></g></g><g fill="#000000" fill-opacity="0.302"><g transform="translate(186.944872, 51.232392)"><g><path d="M 22.265625 -31.96875 L 29.109375 -31.96875 L 18.234375 0 L 10.84375 0 L 0 -31.96875 L 6.84375 -31.96875 L 12.859375 -12.9375 C 13.191406 -11.820312 13.535156 -10.515625 13.890625 -9.015625 C 14.253906 -7.523438 14.476562 -6.488281 14.5625 -5.90625 C 14.71875 -7.25 15.265625 -9.59375 16.203125 -12.9375 Z M 22.265625 -31.96875 "/></g></g></g><g fill="#000000" fill-opacity="0.302"><g transform="translate(216.045765, 51.232392)"><g><path d="M 22.4375 0 L 4.015625 0 L 4.015625 -31.96875 L 22.4375 -31.96875 L 22.4375 -26.40625 L 10.796875 -26.40625 L 10.796875 -19.390625 L 21.625 -19.390625 L 21.625 -13.84375 L 10.796875 -13.84375 L 10.796875 -5.59375 L 22.4375 -5.59375 Z M 22.4375 0 "/></g></g></g><g fill="#000000" fill-opacity="0.502"><g transform="translate(2.401804, 49.25319)"><g><path d="M 4.015625 0 L 4.015625 -31.96875 L 10.796875 -31.96875 L 10.796875 0 Z M 4.015625 0 "/></g></g></g><g fill="#000000" fill-opacity="0.502"><g transform="translate(17.225553, 49.25319)"><g><path d="M 32.390625 0 L 23.765625 0 L 9.859375 -24.1875 L 9.671875 -24.1875 C 9.941406 -19.914062 10.078125 -16.867188 10.078125 -15.046875 L 10.078125 0 L 4.015625 0 L 4.015625 -31.96875 L 12.578125 -31.96875 L 26.453125 -8.03125 L 26.609375 -8.03125 C 26.390625 -12.175781 26.28125 -15.113281 26.28125 -16.84375 L 26.28125 -31.96875 L 32.390625 -31.96875 Z M 32.390625 0 "/></g></g></g><g fill="#000000" fill-opacity="0.502"><g transform="translate(53.629012, 49.25319)"><g><path d="M 22.265625 -31.96875 L 29.109375 -31.96875 L 18.234375 0 L 10.84375 0 L 0 -31.96875 L 6.84375 -31.96875 L 12.859375 -12.9375 C 13.191406 -11.820312 13.535156 -10.515625 13.890625 -9.015625 C 14.253906 -7.523438 14.476562 -6.488281 14.5625 -5.90625 C 14.71875 -7.25 15.265625 -9.59375 16.203125 -12.9375 Z M 22.265625 -31.96875 "/></g></g></g><g fill="#000000" fill-opacity="0.502"><g transform="translate(82.729916, 49.25319)"><g><path d="M 22.4375 0 L 4.015625 0 L 4.015625 -31.96875 L 22.4375 -31.96875 L 22.4375 -26.40625 L 10.796875 -26.40625 L 10.796875 -19.390625 L 21.625 -19.390625 L 21.625 -13.84375 L 10.796875 -13.84375 L 10.796875 -5.59375 L 22.4375 -5.59375 Z M 22.4375 0 "/></g></g></g><g fill="#000000" fill-opacity="0.502"><g transform="translate(107.807857, 49.25319)"><g><path d="M 32.390625 0 L 23.765625 0 L 9.859375 -24.1875 L 9.671875 -24.1875 C 9.941406 -19.914062 10.078125 -16.867188 10.078125 -15.046875 L 10.078125 0 L 4.015625 0 L 4.015625 -31.96875 L 12.578125 -31.96875 L 26.453125 -8.03125 L 26.609375 -8.03125 C 26.390625 -12.175781 26.28125 -15.113281 26.28125 -16.84375 L 26.28125 -31.96875 L 32.390625 -31.96875 Z M 32.390625 0 "/></g></g></g><g fill="#000000" fill-opacity="0.502"><g transform="translate(144.211316, 49.25319)"><g><path d="M 16.359375 0 L 9.578125 0 L 9.578125 -26.328125 L 0.890625 -26.328125 L 0.890625 -31.96875 L 25.03125 -31.96875 L 25.03125 -26.328125 L 16.359375 -26.328125 Z M 16.359375 0 "/></g></g></g><g fill="#000000" fill-opacity="0.502"><g transform="translate(170.141945, 49.25319)"><g><path d="M 4.015625 0 L 4.015625 -31.96875 L 10.796875 -31.96875 L 10.796875 0 Z M 4.015625 0 "/></g></g></g><g fill="#000000" fill-opacity="0.502"><g transform="translate(184.965693, 49.25319)"><g><path d="M 22.265625 -31.96875 L 29.109375 -31.96875 L 18.234375 0 L 10.84375 0 L 0 -31.96875 L 6.84375 -31.96875 L 12.859375 -12.9375 C 13.191406 -11.820312 13.535156 -10.515625 13.890625 -9.015625 C 14.253906 -7.523438 14.476562 -6.488281 14.5625 -5.90625 C 14.71875 -7.25 15.265625 -9.59375 16.203125 -12.9375 Z M 22.265625 -31.96875 "/></g></g></g><g fill="#000000" fill-opacity="0.502"><g transform="translate(214.066586, 49.25319)"><g><path d="M 22.4375 0 L 4.015625 0 L 4.015625 -31.96875 L 22.4375 -31.96875 L 22.4375 -26.40625 L 10.796875 -26.40625 L 10.796875 -19.390625 L 21.625 -19.390625 L 21.625 -13.84375 L 10.796875 -13.84375 L 10.796875 -5.59375 L 22.4375 -5.59375 Z M 22.4375 0 "/></g></g></g><g fill="#ffffff" fill-opacity="1"><g transform="translate(0.422595, 47.273992)"><g><path d="M 4.015625 0 L 4.015625 -31.96875 L 10.796875 -31.96875 L 10.796875 0 Z M 4.015625 0 "/></g></g></g><g fill="#ffffff" fill-opacity="1"><g transform="translate(15.246344, 47.273992)"><g><path d="M 32.390625 0 L 23.765625 0 L 9.859375 -24.1875 L 9.671875 -24.1875 C 9.941406 -19.914062 10.078125 -16.867188 10.078125 -15.046875 L 10.078125 0 L 4.015625 0 L 4.015625 -31.96875 L 12.578125 -31.96875 L 26.453125 -8.03125 L 26.609375 -8.03125 C 26.390625 -12.175781 26.28125 -15.113281 26.28125 -16.84375 L 26.28125 -31.96875 L 32.390625 -31.96875 Z M 32.390625 0 "/></g></g></g><g fill="#ffffff" fill-opacity="1"><g transform="translate(51.649803, 47.273992)"><g><path d="M 22.265625 -31.96875 L 29.109375 -31.96875 L 18.234375 0 L 10.84375 0 L 0 -31.96875 L 6.84375 -31.96875 L 12.859375 -12.9375 C 13.191406 -11.820312 13.535156 -10.515625 13.890625 -9.015625 C 14.253906 -7.523438 14.476562 -6.488281 14.5625 -5.90625 C 14.71875 -7.25 15.265625 -9.59375 16.203125 -12.9375 Z M 22.265625 -31.96875 "/></g></g></g><g fill="#ffffff" fill-opacity="1"><g transform="translate(80.750708, 47.273992)"><g><path d="M 22.4375 0 L 4.015625 0 L 4.015625 -31.96875 L 22.4375 -31.96875 L 22.4375 -26.40625 L 10.796875 -26.40625 L 10.796875 -19.390625 L 21.625 -19.390625 L 21.625 -13.84375 L 10.796875 -13.84375 L 10.796875 -5.59375 L 22.4375 -5.59375 Z M 22.4375 0 "/></g></g></g><g fill="#ffffff" fill-opacity="1"><g transform="translate(105.828648, 47.273992)"><g><path d="M 32.390625 0 L 23.765625 0 L 9.859375 -24.1875 L 9.671875 -24.1875 C 9.941406 -19.914062 10.078125 -16.867188 10.078125 -15.046875 L 10.078125 0 L 4.015625 0 L 4.015625 -31.96875 L 12.578125 -31.96875 L 26.453125 -8.03125 L 26.609375 -8.03125 C 26.390625 -12.175781 26.28125 -15.113281 26.28125 -16.84375 L 26.28125 -31.96875 L 32.390625 -31.96875 Z M 32.390625 0 "/></g></g></g><g fill="#ffffff" fill-opacity="1"><g transform="translate(142.232108, 47.273992)"><g><path d="M 16.359375 0 L 9.578125 0 L 9.578125 -26.328125 L 0.890625 -26.328125 L 0.890625 -31.96875 L 25.03125 -31.96875 L 25.03125 -26.328125 L 16.359375 -26.328125 Z M 16.359375 0 "/></g></g></g><g fill="#ffffff" fill-opacity="1"><g transform="translate(168.162736, 47.273992)"><g><path d="M 4.015625 0 L 4.015625 -31.96875 L 10.796875 -31.96875 L 10.796875 0 Z M 4.015625 0 "/></g></g></g><g fill="#ffffff" fill-opacity="1"><g transform="translate(182.986484, 47.273992)"><g><path d="M 22.265625 -31.96875 L 29.109375 -31.96875 L 18.234375 0 L 10.84375 0 L 0 -31.96875 L 6.84375 -31.96875 L 12.859375 -12.9375 C 13.191406 -11.820312 13.535156 -10.515625 13.890625 -9.015625 C 14.253906 -7.523438 14.476562 -6.488281 14.5625 -5.90625 C 14.71875 -7.25 15.265625 -9.59375 16.203125 -12.9375 Z M 22.265625 -31.96875 "/></g></g></g><g fill="#ffffff" fill-opacity="1"><g transform="translate(212.087377, 47.273992)"><g><path d="M 22.4375 0 L 4.015625 0 L 4.015625 -31.96875 L 22.4375 -31.96875 L 22.4375 -26.40625 L 10.796875 -26.40625 L 10.796875 -19.390625 L 21.625 -19.390625 L 21.625 -13.84375 L 10.796875 -13.84375 L 10.796875 -5.59375 L 22.4375 -5.59375 Z M 22.4375 0 "/></g></g></g><g fill="#000000" fill-opacity="0.302"><g transform="translate(4.380984, 86.482389)"><g/></g></g><g fill="#000000" fill-opacity="0.302"><g transform="translate(16.012598, 86.482389)"><g/></g></g><g fill="#000000" fill-opacity="0.502"><g transform="translate(2.401804, 84.503188)"><g/></g></g><g fill="#000000" fill-opacity="0.502"><g transform="translate(14.033418, 84.503188)"><g/></g></g><g clip-path="url(#a3edd2b5b0)"><g fill="#ffffff" fill-opacity="1"><g transform="translate(0.422595, 82.52399)"><g/></g></g></g><g fill="#ffffff" fill-opacity="1"><g transform="translate(12.054209, 82.52399)"><g/></g></g><g fill="#000000" fill-opacity="0.302"><g transform="translate(27.65442, 86.482389)"><g><path d="M 24.859375 -6.625 L 21.015625 -6.625 L 21.015625 0 L 14.40625 0 L 14.40625 -6.625 L 0.765625 -6.625 L 0.765625 -11.328125 L 14.78125 -31.96875 L 21.015625 -31.96875 L 21.015625 -11.875 L 24.859375 -11.875 Z M 14.40625 -11.875 L 14.40625 -17.296875 C 14.40625 -18.203125 14.441406 -19.515625 14.515625 -21.234375 C 14.585938 -22.953125 14.644531 -23.953125 14.6875 -24.234375 L 14.515625 -24.234375 C 13.972656 -23.035156 13.328125 -21.867188 12.578125 -20.734375 L 6.71875 -11.875 Z M 14.40625 -11.875 "/></g></g></g><g fill="#000000" fill-opacity="0.302"><g transform="translate(53.213367, 86.482389)"><g><path d="M 4.015625 0 L 4.015625 -31.96875 L 10.796875 -31.96875 L 10.796875 0 Z M 4.015625 0 "/></g></g></g><g fill="#000000" fill-opacity="0.302"><g transform="translate(68.037115, 86.482389)"><g><path d="M 16.359375 0 L 9.578125 0 L 9.578125 -26.328125 L 0.890625 -26.328125 L 0.890625 -31.96875 L 25.03125 -31.96875 L 25.03125 -26.328125 L 16.359375 -26.328125 Z M 16.359375 0 "/></g></g></g><g fill="#000000" fill-opacity="0.502"><g transform="translate(25.67524, 84.503188)"><g><path d="M 24.859375 -6.625 L 21.015625 -6.625 L 21.015625 0 L 14.40625 0 L 14.40625 -6.625 L 0.765625 -6.625 L 0.765625 -11.328125 L 14.78125 -31.96875 L 21.015625 -31.96875 L 21.015625 -11.875 L 24.859375 -11.875 Z M 14.40625 -11.875 L 14.40625 -17.296875 C 14.40625 -18.203125 14.441406 -19.515625 14.515625 -21.234375 C 14.585938 -22.953125 14.644531 -23.953125 14.6875 -24.234375 L 14.515625 -24.234375 C 13.972656 -23.035156 13.328125 -21.867188 12.578125 -20.734375 L 6.71875 -11.875 Z M 14.40625 -11.875 "/></g></g></g><g fill="#000000" fill-opacity="0.502"><g transform="translate(51.234187, 84.503188)"><g><path d="M 4.015625 0 L 4.015625 -31.96875 L 10.796875 -31.96875 L 10.796875 0 Z M 4.015625 0 "/></g></g></g><g fill="#000000" fill-opacity="0.502"><g transform="translate(66.057936, 84.503188)"><g><path d="M 16.359375 0 L 9.578125 0 L 9.578125 -26.328125 L 0.890625 -26.328125 L 0.890625 -31.96875 L 25.03125 -31.96875 L 25.03125 -26.328125 L 16.359375 -26.328125 Z M 16.359375 0 "/></g></g></g><g fill="#ffffff" fill-opacity="1"><g transform="translate(23.696032, 82.52399)"><g><path d="M 24.859375 -6.625 L 21.015625 -6.625 L 21.015625 0 L 14.40625 0 L 14.40625 -6.625 L 0.765625 -6.625 L 0.765625 -11.328125 L 14.78125 -31.96875 L 21.015625 -31.96875 L 21.015625 -11.875 L 24.859375 -11.875 Z M 14.40625 -11.875 L 14.40625 -17.296875 C 14.40625 -18.203125 14.441406 -19.515625 14.515625 -21.234375 C 14.585938 -22.953125 14.644531 -23.953125 14.6875 -24.234375 L 14.515625 -24.234375 C 13.972656 -23.035156 13.328125 -21.867188 12.578125 -20.734375 L 6.71875 -11.875 Z M 14.40625 -11.875 "/></g></g></g><g fill="#ffffff" fill-opacity="1"><g transform="translate(49.254978, 82.52399)"><g><path d="M 4.015625 0 L 4.015625 -31.96875 L 10.796875 -31.96875 L 10.796875 0 Z M 4.015625 0 "/></g></g></g><g fill="#ffffff" fill-opacity="1"><g transform="translate(64.078727, 82.52399)"><g><path d="M 16.359375 0 L 9.578125 0 L 9.578125 -26.328125 L 0.890625 -26.328125 L 0.890625 -31.96875 L 25.03125 -31.96875 L 25.03125 -26.328125 L 16.359375 -26.328125 Z M 16.359375 0 "/></g></g></g></g></g></g></svg>